<svg xmlns="http://www.w3.org/2000/svg" width="23.239" height="28.343"><g data-name="bag icon"><path data-name="shopping bag" d="M7.838 5.468v-.182a4.106 4.106 0 011.093-2.734 4.188 4.188 0 012.734-1.185A4.106 4.106 0 0114.4 2.461a4.188 4.188 0 011.185 2.734v.273zm-.73 3.919a.784.784 0 01.729.729.784.784 0 01-.729.729.784.784 0 01-.729-.729.671.671 0 01.729-.729zm9.113 0a.784.784 0 01.729.729.729.729 0 11-1.458 0 .719.719 0 01.729-.729zm-.729-1.094V6.926H7.838v1.367a1.9 1.9 0 011.185 1.823 1.869 1.869 0 01-1.915 1.914 1.869 1.869 0 01-1.914-1.914 1.994 1.994 0 011.185-1.823V6.926H3.554c-.182 0-.273 0-.365.091a.473.473 0 00-.365.182l-.091.091c0 .091-.091.182-.182.273 0 .182-.091.273-.091.456l-1 17.862c0 .182 0 .273.091.365s.091.273.273.365a1.258 1.258 0 00.365.273.548.548 0 00.365.091H20.87c.182 0 .273 0 .365-.091s.273-.091.365-.273a1.258 1.258 0 00.273-.365.548.548 0 00.091-.365L20.87 8.02a.822.822 0 00-.091-.456c-.091-.091-.091-.273-.273-.365a1.258 1.258 0 00-.365-.273.683.683 0 00-.456-.091H16.86V8.2a1.9 1.9 0 011.185 1.823 1.914 1.914 0 11-3.828 0 2.3 2.3 0 011.276-1.732zm1.458-2.825v-.182A5.29 5.29 0 0011.665 0h-.091a5.556 5.556 0 00-3.736 1.549 5.474 5.474 0 00-1.459 3.737v.182H3.554a2.7 2.7 0 00-.911.182 3.181 3.181 0 00-.82.547l-.091.091a3.2 3.2 0 00-.456.729 3.238 3.238 0 00-.182.911L0 25.882a2.7 2.7 0 00.182.911 2.152 2.152 0 00.547.82 2.152 2.152 0 00.82.547 3.238 3.238 0 00.911.182h18.319a2.7 2.7 0 00.911-.182 1.984 1.984 0 00.729-.456l.091-.091a2.152 2.152 0 00.547-.82 3.238 3.238 0 00.182-.911l-1-17.862a2.7 2.7 0 00-.182-.911 2.152 2.152 0 00-.547-.82 2.152 2.152 0 00-.82-.547 3.238 3.238 0 00-.911-.182h-2.828z" fill="#231f20" fill-rule="evenodd"/></g></svg>