<svg xmlns="http://www.w3.org/2000/svg" width="24.082" height="19.27"><path data-name="WISHLIST ICON" d="M11.964 17.929c.614-.46 1.227-.92 1.917-1.38 3.758-2.608 8.82-6.212 8.82-9.817a5.485 5.485 0 00-2.3-4.678 4.926 4.926 0 00-2.3-.844 4.983 4.983 0 00-2.377.307 5.147 5.147 0 00-3.144 3.835.6.6 0 01-.69.46.691.691 0 01-.46-.46 4.94 4.94 0 00-3.224-3.836 5.107 5.107 0 00-2.377-.307 4.926 4.926 0 00-2.3.844 5.306 5.306 0 00-2.3 4.678c0 3.681 5.062 7.209 8.82 9.817a20.745 20.745 0 011.917 1.38zm2.684-.383q-1.265.92-2.3 1.611a.7.7 0 01-.767 0c-.614-.46-1.457-1-2.3-1.611C5.369 14.707 0 11.026 0 6.731a6.577 6.577 0 012.838-5.675 6.308 6.308 0 012.838-1 5.791 5.791 0 012.99.387 6.235 6.235 0 013.374 3.068A6.235 6.235 0 0115.415.443a6.589 6.589 0 012.991-.384 7.385 7.385 0 012.838 1 6.4 6.4 0 012.838 5.675c-.082 4.292-5.446 7.973-9.434 10.811z" fill="#231f20" fill-rule="evenodd"/></svg>